<svg width="1602" height="1202" xmlns="http://www.w3.org/2000/svg">

 <g>
  <title>background</title>
  <rect fill="none" id="canvas_background" height="1204" width="1604" y="-1" x="-1"/>
 </g>
 <g>
  <title>Layer 1</title>
  <path stroke="#5da8dc" id="svg_1" stroke-width="0.5" fill="#5da8dc" d="m974.144078,296.38111l0,-0.145564l39.719628,0l14.512941,2.765708c9.675549,1.795527 18.459697,4.148563 26.352446,7.059835c7.893512,2.911272 15.531902,6.307999 22.91517,10.189452c7.384032,3.881453 14.080608,7.836417 20.08973,11.863434c5.957944,3.978981 11.304817,8.200326 16.040619,12.664033c4.683861,4.512472 11.991509,5.67698 21.921416,3.493526s20.623653,-5.216272 32.081238,-9.097725s22.788373,-8.248362 33.990836,-13.100724c11.203227,-4.852363 18.027364,-7.933216 20.471649,-9.243289c2.393108,-1.358108 3.666427,-2.085926 3.819195,-2.183454l0.152004,-0.218345l0.763839,-0.363909l0.763839,-0.363909l0.763839,-0.363909l0.763839,-0.363909l0.152768,-0.218345l0.229152,-0.145564l0.229916,-0.145564l0.152004,-0.218345l0.763839,-0.218345l0.763839,-0.145564l-0.152004,1.091727l-0.229916,1.091727l-0.38192,1.091727l-0.38192,1.091727l-0.38192,0.727818l-0.38192,0.727818l-0.38192,1.091727c-0.254358,0.727818 -0.508717,1.697999 -0.763839,2.911272c-0.254358,1.213273 -2.673437,6.064907 -7.256471,14.55636s-10.311827,17.103723 -17.186378,25.837539s-13.035677,15.332214 -18.48414,19.79665c-5.499641,4.512472 -9.140861,7.666107 -10.923662,9.461634c-1.782036,1.843563 -3.945992,3.541562 -6.492632,5.094726l-3.819195,2.401799l-0.763839,0.363909l-0.763839,0.363909l-0.152004,0.218345l-0.229916,0.145564l-0.229152,0.145564l-0.152768,0.218345l-0.763839,0.363909l-0.763839,0.363909l-0.152004,0.218345l-0.229916,0.145564l-0.229152,0.145564l-0.152768,0.218345l-0.152004,0.218345l-0.229916,0.145564l-0.229152,0.145564l-0.152768,0.218345l3.819195,0l21.387492,-4.366908c14.258583,-2.911272 27.880124,-6.428816 40.865387,-10.553361l20.623653,-6.550362l2.291517,-0.727818l1.145759,-0.363909l0.763839,-0.363909l0.763839,-0.363909l0.763839,-0.363909l0.763839,-0.363909l1.527678,-0.218345l1.527678,-0.145564l0,1.455636l-0.38192,0.145564l-0.38192,0.218345l-0.152004,0.218345l-0.229916,0.145564l-0.229152,0.145564l-0.152768,0.218345l-0.152004,0.218345l-0.229916,0.145564l-0.229152,0.145564l-0.152768,0.218345l-0.152004,0.218345l-0.229916,0.145564l-0.38192,0.727818l-0.38192,0.727818l-0.229152,0.145564c-0.101591,0.145564 -3.334921,4.26938 -9.700755,12.372906c-6.36507,8.151562 -9.802346,12.275379 -10.311827,12.372906c-0.508717,0.145564 -1.222142,0.873382 -2.138749,2.183454c-0.86543,1.358108 -6.26348,6.768707 -16.193387,16.230342s-19.655105,17.879577 -29.177886,25.255285c-9.573194,7.423744 -14.411351,16.545487 -14.512941,27.365957c-0.152768,10.771707 -0.738632,22.951013 -1.757594,36.536464c-1.018197,13.586179 -2.927795,28.263357 -5.728793,44.03299c-2.800234,15.769633 -7.128909,33.601174 -12.985263,53.494624c-5.85559,19.89345 -12.985263,39.302173 -21.387492,58.225441s-17.186378,35.905446 -26.352446,50.947261s-17.568297,27.77863 -25.206687,38.210446s-15.403577,20.257359 -23.29709,29.476629c-7.892748,9.219271 -17.873069,19.60305 -29.941725,31.150611c-12.119834,11.499525 -18.739262,17.807523 -19.859814,18.923268c-1.170965,1.067709 -6.161125,5.04669 -14.972008,11.936215c-8.758178,6.938289 -18.179368,13.876578 -28.262043,20.815595c-10.031498,6.890253 -19.248743,12.640015 -27.650972,17.249287s-18.535317,9.873579 -30.400793,15.793651c-11.813534,5.968108 -24.595616,11.499525 -38.344718,16.594251s-28.262043,9.825543 -43.538823,14.192451s-30.04408,7.763635 -44.302663,10.189452c-14.257819,2.425817 -30.425999,4.488454 -48.503777,6.186453l-27.116285,2.547363l0,0.363909l-49.649536,0l0,-0.363909l-6.492632,-0.363909c-4.327912,-0.242363 -7.892748,-0.485455 -10.693746,-0.727818c-2.800234,-0.242363 -13.367183,-1.577182 -31.699319,-4.002999s-32.717516,-4.852363 -43.156904,-7.27818c-10.438624,-2.425817 -25.970526,-7.035817 -46.59418,-13.828542s-38.268334,-13.658961 -52.934043,-20.59725c-14.614532,-6.890253 -23.7806,-11.257161 -27.498204,-13.100724c-3.666427,-1.795527 -7.791158,-4.027017 -12.374192,-6.695926l-6.874551,-4.002999l-0.152004,-0.218345l-0.229916,-0.145564l-0.229152,-0.145564l-0.152768,-0.218345l-0.763839,-0.363909l-0.763839,-0.363909l-0.152004,-0.218345l-0.229916,-0.145564l-0.229152,-0.145564l-0.152768,-0.218345l-0.152004,-0.218345l-0.229916,-0.145564l-0.38192,0l0,-1.455636l0.763839,0.145564l0.763839,0.218345l3.437276,0.363909c2.291517,0.242363 8.52979,0.606272 18.714056,1.091727c10.185029,0.485455 21.005573,0.485455 32.463158,0s23.170292,-1.577182 35.136594,-3.275181c11.967066,-1.697999 26.098087,-4.609271 42.393065,-8.733816c16.295741,-4.124545 31.266986,-9.024943 44.914498,-14.701924c13.596334,-5.725016 23.271119,-9.995125 29.025882,-12.809597c5.702822,-2.765708 14.410587,-7.909198 26.12253,-15.429742l17.568297,-11.281179l0.152768,-0.218345l0.229152,-0.145564l0.229916,-0.145564l0.152004,-0.218345l0.152768,-0.218345l0.229152,-0.145564l0.229916,-0.145564l0.152004,-0.218345l0.763839,-0.218345l0.763839,-0.145564l0.152768,-0.727818l0.229152,-0.727818l0.229916,-0.145564l0.152004,-0.218345l-6.110712,-0.363909c-4.073553,-0.242363 -8.02031,-0.485455 -11.839505,-0.727818s-9.802346,-1.33409 -17.950217,-3.275181c-8.147107,-1.941091 -16.931255,-4.852363 -26.352446,-8.733816c-9.420426,-3.881453 -18.586495,-8.491453 -27.498204,-13.828542c-8.910946,-5.337089 -15.353164,-9.777507 -19.325127,-13.31907c-3.920786,-3.494254 -9.0133,-8.442689 -15.27678,-14.847487c-6.212303,-6.452834 -11.610353,-13.076706 -16.193387,-19.869432s-8.962123,-14.62987 -13.137267,-23.508522l-6.340628,-13.246288l-0.38192,-1.091727l-0.38192,-1.091727l-0.229152,-0.727818l-0.152768,-0.727818l1.145759,0.145564l1.145759,0.218345l8.402229,1.091727c5.601995,0.727818 14.386144,0.970181 26.352446,0.727818c11.967066,-0.242363 20.241734,-0.727818 24.824768,-1.455636s7.384032,-1.213273 8.402229,-1.455636l1.527678,-0.363909l1.909598,-0.363909l1.909598,-0.363909l0.152768,-0.218345l0.229152,-0.145564l0.229916,-0.145564l0.152004,-0.218345l-1.527678,-0.363909l-1.527678,-0.363909l-1.527678,-0.363909l-1.527678,-0.363909l-1.527678,-0.363909c-1.018197,-0.242363 -2.800234,-0.727818 -5.346873,-1.455636c-2.545875,-0.727818 -9.420426,-3.396727 -20.623653,-8.005998c-11.202463,-4.609271 -20.114173,-9.097725 -26.734365,-13.464633a184.619888,175.913613 0 0 1 -18.943207,-14.338015c-5.957944,-5.24029 -12.500989,-11.984979 -19.630663,-20.233341c-7.128909,-8.248362 -13.49398,-17.831541 -19.095975,-28.748811c-5.601231,-10.91727 -9.802346,-21.349086 -12.603344,-31.296174a177.319879,168.957856 0 0 1 -5.498877,-30.204447l-1.375674,-15.284178l0.763839,0.145564l0.763839,0.218345l0.763839,0.363909l0.763839,0.363909l0.763839,0.363909l0.763839,0.363909l11.839505,5.094726c7.893512,3.396727 17.695858,6.307999 29.407802,8.733816c11.712707,2.425817 18.714056,3.760636 21.005573,4.002999l3.437276,0.363909l6.874551,0l-0.152004,-0.218345l-0.229916,-0.145564l-0.229152,-0.145564l-0.152768,-0.218345l-0.152004,-0.218345l-0.229916,-0.145564l-0.229152,-0.145564l-0.152768,-0.218345l-0.763839,-0.363909l-0.763839,-0.363909l-0.152004,-0.218345l-0.229916,-0.145564l-0.229152,-0.145564l-0.152768,-0.218345l-0.763839,-0.363909l-0.763839,-0.363909l-0.152004,-0.218345c-0.152768,-0.097528 -2.342694,-1.649963 -6.569779,-4.658035c-4.175908,-3.056836 -8.554997,-7.011071 -13.138031,-11.863434s-9.166068,-9.947089 -13.749102,-15.284178a123.862606,118.021513 0 0 1 -12.221424,-17.103723c-3.564073,-6.064907 -7.332854,-13.780506 -11.304817,-23.144613c-3.920786,-9.316071 -6.899758,-18.704923 -8.936916,-28.166557c-2.036395,-9.461634 -3.182153,-18.801723 -3.437276,-28.020993c-0.254358,-9.219271 0,-17.103723 0.763839,-23.654085s2.291517,-13.950088 4.583034,-22.198449s5.601995,-16.982178 9.929907,-26.201448l6.492632,-13.828542l0.38192,-1.091727l0.38192,-1.091727l0.229916,-0.145564l0.152004,-0.218345l0.152768,-0.218345l0.229152,-0.145564l0.229916,0.145564l0.152004,0.218345l0.152768,0.218345l0.229152,0.145564l0.229916,0.145564l0.152004,0.218345l0.152768,0.218345l0.229152,0.145564l0.38192,0.727818l0.38192,0.727818l0.229916,0.145564l0.152004,0.218345l10.311827,10.91727c6.874551,7.27818 15.022422,15.405724 24.442848,24.381903c9.42119,8.97618 14.640502,13.634215 15.6587,13.974106c1.018961,0.387927 2.291517,1.503672 3.819195,3.347963c1.527678,1.795527 6.620193,6.089653 15.27678,12.882379c8.657351,6.792725 19.987375,14.677906 33.990836,23.654085c14.004224,8.97618 29.535363,17.831541 46.59418,26.565357c17.05958,8.733816 35.391717,16.618269 54.996409,23.654085c19.605456,7.035817 33.354558,11.645088 41.247306,13.828542c7.893512,2.183454 21.387492,4.97318 40.483467,8.369907s33.482119,5.580181 43.156904,6.550362c9.675549,0.970181 16.295741,1.528418 19.859814,1.673981l5.346873,0.145564l-0.152004,-1.091727l-0.229916,-1.091727l-1.527678,-9.097725c-1.018197,-6.064907 -1.527678,-14.55636 -1.527678,-25.47363s0.8914,-20.985177 2.673437,-30.204447c1.7828,-9.219271 4.456237,-18.559359 8.02031,-28.020993c3.564837,-9.461634 7.053289,-17.055687 10.464594,-22.780704c3.463246,-5.67698 7.995103,-12.154561 13.596334,-19.432741c5.601995,-7.27818 12.858466,-14.798724 21.769412,-22.562358c8.91171,-7.763635 19.095975,-14.677906 30.55356,-20.742813s22.024534,-10.674907 31.699319,-13.828542c9.675549,-3.153635 17.823419,-5.216272 24.442848,-6.186453c6.620193,-0.970181 9.929907,-1.528418 9.929907,-1.673981z"/>
 </g>
</svg>